<svg fill="none" height="48" viewBox="0 0 48 48" width="48" xmlns="http://www.w3.org/2000/svg"><rect fill="#000" height="45" rx="10.5" width="45" x="1.5" y="1.5"/><rect height="45" rx="10.5" stroke="#252525" stroke-width="3" width="45" x="1.5" y="1.5"/><path d="m41.184 36.212v.288c-3.276.072-8.244.108-11.7 0-.72-.54-1.548-1.296-2.52-2.232-2.412 1.548-5.184 2.592-8.064 2.592-5.112 0-9.03599-2.916-9.03599-7.524 0-4.248 3.52799-6.912 7.01999-7.956-.648-1.404-.936-2.628-.936-3.816 0-3.276 2.772-6.264 6.336-6.264 2.952 0 5.616 1.656 5.616 4.428 0 2.484-2.34 4.392-6.228 4.716l.108.144c3.096 4.32 5.976 7.704 8.712 10.224 1.8-2.844 2.808-7.596 2.916-13.968h.288l.108 7.236 1.548.504c-.9 2.088-2.484 4.428-4.536 6.516 3.744 3.384 7.164 5.04 10.368 5.112zm-21.78-21.204c0 1.656.72 3.276 2.088 5.184 1.764-.468 3.384-2.268 3.384-4.752 0-2.232-1.008-3.78-2.736-3.78-1.62 0-2.736 1.368-2.736 3.348zm3.132 19.728c1.476 0 2.88-.252 4.14-.792-2.268-2.268-5.04-5.472-7.812-9.324-.792-1.08-1.404-2.052-1.836-2.952-1.476 1.224-2.34 3.24-2.34 5.508 0 4.5 3.348 7.56 7.848 7.56z" fill="#fff"/></svg>